#!OML:ASF F:\VICON\USERDATA\INSTALL\rory3\rory3.ASF
:FULLY-SPECIFIED
:DEGREES
347
root -0.873464 18.0351 0.546122 5.88275 2.31201 2.41028
lowerback 10.8843 -0.112055 -4.29143
upperback 2.94887 -0.590289 0.632615
thorax -2.9696 -0.276301 3.15571
lowerneck -21.8976 -3.74188 -12.6869
upperneck 17.9239 -2.7302 7.45127
head 9.55763 -1.30098 4.30329
rclavicle 1.16786e-014 -1.0138e-014
rhumerus -7.44383 19.3991 -80.8216
rradius 132.041
rwrist 11.407
rhand -24.8444 25.6419
rfingers 7.12502
rthumb 1.66184 -4.3314
lclavicle 1.16786e-014 -1.0138e-014
lhumerus 5.25049 -18.0377 83.9407
lradius 124.076
lwrist -0.959263
lhand -10.9797 6.61435
lfingers 7.12502
lthumb 15.04 36.0481
rfemur -32.1601 -9.76387 9.70301
rtibia 52.8106
rfoot -8.46874 -3.18724
rtoes -4.59141
lfemur -17.8797 2.40276 -10.8787
ltibia 48.0237
lfoot -4.50856 -7.88665
ltoes -32.0348
348
root -0.88654 18.0166 0.573167 5.57273 1.78082 2.74876
lowerback 11.5323 -0.0846041 -4.71694
upperback 2.70936 -0.632045 0.801494
thorax -3.56488 -0.275326 3.59034
lowerneck -21.8459 -3.54011 -12.5243
upperneck 18.3888 -2.46754 7.19976
head 9.6775 -1.20716 4.23496
rclavicle -8.94531e-016 -5.1684e-015
rhumerus -8.69744 19.926 -81.2326
rradius 132.219
rwrist 11.3956
rhand -23.8481 25.3487
rfingers 7.12502
rthumb 2.62404 -4.61495
lclavicle -8.94531e-016 -5.1684e-015
lhumerus 4.46516 -17.5374 84.5599
lradius 124.344
lwrist -1.17064
lhand -10.9381 6.77355
lfingers 7.12502
lthumb 15.0801 36.2043
rfemur -32.7019 -8.92196 8.88959
rtibia 50.1082
rfoot -8.23781 -3.62153
rtoes -3.08866
lfemur -16.3735 3.3369 -11.6299
ltibia 48.972
lfoot -4.68872 -10.5506
ltoes -31.5687
349
root -0.903482 17.9802 0.599688 5.27603 1.0585 3.27755
lowerback 11.405 -0.0259476 -5.17038
upperback 3.02321 -0.597474 0.714371
thorax -3.16437 -0.273153 3.74617
lowerneck -22.0556 -3.39916 -12.1279
upperneck 18.3355 -2.33371 7.02703
head 9.6729 -1.13228 4.12641
rclavicle 2.18663e-015 7.95139e-016
rhumerus -9.14919 19.9683 -81.702
rradius 132.156
rwrist 11.2029
rhand -23.0058 26.1167
rfingers 7.12502
rthumb 3.43745 -3.83538
lclavicle 2.18663e-015 7.95139e-016
lhumerus 4.70478 -17.1481 84.4894
lradius 124.561
lwrist -1.29657
lhand -11.0029 6.89701
lfingers 7.12502
lthumb 15.0177 36.3324
rfemur -33.2888 -7.72526 7.77775
rtibia 47.3751
rfoot -7.17283 -3.87499
rtoes -0.234719
lfemur -14.5951 3.96097 -12.5949
ltibia 49.0614
lfoot -4.42614 -12.7208
ltoes -30.4372
350
root -0.918046 17.9292 0.636696 5.01836 0.210174 3.86495
lowerback 11.6305 0.109745 -5.84262
upperback 2.95888 -0.510342 0.758709
thorax -3.35564 -0.21981 4.16544
lowerneck -22.0824 -3.22936 -11.8737
upperneck 18.5359 -2.10788 6.69766
head 9.71785 -1.05151 4.00343
rclavicle -2.57426e-014 6.36111e-015
rhumerus -10.3724 20.2042 -82.1347
rradius 132.061
rwrist 11.6686
rhand -23.3029 26.7375
rfingers 7.12502
rthumb 3.15061 -3.21898
lclavicle -2.57426e-014 6.36111e-015
lhumerus 4.40615 -16.7693 84.8648
lradius 124.755
lwrist -1.41107
lhand -11.0926 6.81213
lfingers 7.12502
lthumb 14.9313 36.2539
rfemur -33.8818 -6.35669 6.49023
rtibia 44.7192
rfoot -5.55283 -4.04743
rtoes 2.90155
lfemur -12.5629 4.37632 -13.6834
ltibia 48.3218
lfoot -3.89042 -14.1271
ltoes -30.5514
351
root -0.928964 17.8639 0.684532 4.86153 -0.526507 4.56449
lowerback 11.2121 0.129904 -6.29138
upperback 3.14202 -0.511637 0.527804
thorax -2.93003 -0.237117 4.16983
lowerneck -22.1503 -3.00567 -11.4282
upperneck 18.4756 -1.91304 6.59681
head 9.68111 -0.938518 3.92156
rclavicle 0 6.36111e-015
rhumerus -11.1293 20.2341 -82.7774
rradius 131.87
rwrist 12.2422
rhand -23.7189 26.5419
rfingers 7.12502
rthumb 2.74879 -3.42013
lclavicle 0 6.36111e-015
lhumerus 4.67642 -16.4026 84.6841
lradius 124.812
lwrist -1.36921
lhand -11.0733 6.74602
lfingers 7.12502
lthumb 14.9499 36.1865
rfemur -34.5575 -5.17007 5.04052
rtibia 42.2908
rfoot -3.61249 -4.33899
rtoes 1.48224
lfemur -10.4821 4.47017 -14.9578
ltibia 46.8862
lfoot -3.23881 -14.8797
ltoes -30.8651
352
root -0.940537 17.7785 0.726525 4.8108 -1.06852 5.26129
lowerback 11.3764 0.149669 -6.93018
upperback 2.85736 -0.581125 0.508675
thorax -3.30217 -0.248699 4.52558
lowerneck -21.9126 -2.77369 -11.1789
upperneck 18.5564 -1.64547 6.33841
head 9.63572 -0.831485 3.82741
rclavicle -1.72943e-014 1.19271e-015
rhumerus -12.3054 20.1953 -83.1824
rradius 131.735
rwrist 12.2284
rhand -23.6534 26.3635
rfingers 7.12502
rthumb 2.81212 -3.59766
lclavicle -1.72943e-014 1.19271e-015
lhumerus 4.21505 -16.039 85.0167
lradius 124.994
lwrist -1.4639
lhand -10.9908 6.73023
lfingers 7.12502
lthumb 15.0294 36.1647
rfemur -35.4262 -3.97523 3.53939
rtibia 40.2553
rfoot -1.94294 -4.81972
rtoes -3.59824
lfemur -8.53511 4.11974 -16.2902
ltibia 44.9209
lfoot -2.54839 -14.9821
ltoes -30.2109
353
root -0.952941 17.6764 0.764242 4.86034 -1.378 5.69605
lowerback 10.8915 0.0363576 -7.05203
upperback 3.01979 -0.705088 0.402856
thorax -2.84804 -0.33089 4.49075
lowerneck -22.0679 -2.63838 -10.8123
upperneck 18.3246 -1.5185 6.17884
head 9.5639 -0.757952 3.72391
rclavicle 4.77083e-015 1.03368e-014
rhumerus -12.9032 19.8861 -83.5832
rradius 131.68
rwrist 12.146
rhand -23.5097 26.44
rfingers 7.12502
rthumb 2.95086 -3.51934
lclavicle 4.77083e-015 1.03368e-014
lhumerus 4.5595 -15.7463 84.8613
lradius 125.131
lwrist -1.45628
lhand -10.9134 6.71682
lfingers 7.12502
lthumb 15.1039 36.1457
rfemur -36.4399 -2.89415 2.33812
rtibia 38.7545
rfoot -0.735434 -4.95502
rtoes -5.1423
lfemur -6.76295 3.33061 -17.3903
ltibia 42.6566
lfoot -2.54927 -14.7056
ltoes -30.8073
